<mxfile host="app.diagrams.net" modified="2023-11-08T18:27:45.612Z" agent="Mozilla/5.0 (Macintosh; Intel Mac OS X 10_15_7) AppleWebKit/537.36 (KHTML, like Gecko) Chrome/119.0.0.0 Safari/537.36" version="22.0.8" etag="z43PD8yT3JlY5hC_R0lk" type="github">
  <diagram name="Page-1" id="TjL591cvsc9ngID2Ryi6">
    <mxGraphModel>
      <root>
        <mxCell id="0" />
        <mxCell id="1" parent="0" />
      </root>
    </mxGraphModel>
  </diagram>
</mxfile>
